<svg id="レイヤー_1" data-name="レイヤー 1" xmlns="http://www.w3.org/2000/svg" viewBox="0 0 48 48"><defs><style>.cls-1{fill:#898989;}</style></defs><title>icon-plus</title><path class="cls-1" d="M23.32,10A14.25,14.25,0,0,0,10,24.4h0a13.38,13.38,0,0,0,8.38,12.5A14.07,14.07,0,0,0,38,24h0A14,14,0,0,0,23.32,10ZM34,25a1,1,0,0,1-1,1H27a1,1,0,0,0-1,1v6a1,1,0,0,1-1,1H23a1,1,0,0,1-1-1V27a1,1,0,0,0-1-1H15a1,1,0,0,1-1-1V23a1,1,0,0,1,1-1h6a1,1,0,0,0,1-1V15a1,1,0,0,1,1-1h2a1,1,0,0,1,1,1v6a1,1,0,0,0,1,1h6a1,1,0,0,1,1,1Z"/></svg>