<svg id="レイヤー_1" data-name="レイヤー 1" xmlns="http://www.w3.org/2000/svg" viewBox="0 0 48 48"><defs><style>.cls-1{fill:#898989;}</style></defs><title>icon-save</title><path class="cls-1" d="M36,30v2a2,2,0,0,1-2,2H14a2,2,0,0,1-2-2V30a2,2,0,0,0-2-2H8a2,2,0,0,0-2,2v6a4,4,0,0,0,4,4H38a4,4,0,0,0,4-4V30a2,2,0,0,0-2-2H38A2,2,0,0,0,36,30Z"/><path class="cls-1" d="M28,19V9.73A1.74,1.74,0,0,0,26.27,8H22a2,2,0,0,0-2,2v9a1,1,0,0,1-1,1H16.18A1.73,1.73,0,0,0,15,23l7.82,7.82a1.73,1.73,0,0,0,2.44,0L33,23a1.73,1.73,0,0,0-1.22-3H29A1,1,0,0,1,28,19Z"/></svg>