<svg id="レイヤー_1" data-name="レイヤー 1" xmlns="http://www.w3.org/2000/svg" viewBox="0 0 48 48"><defs><style>.cls-1{fill:#898989;}</style></defs><title>icon-cut</title><path class="cls-1" d="M8,15H8a7,7,0,0,0,7,7h0a7,7,0,0,0,7-7h0a7,7,0,0,0-7-7h0A7,7,0,0,0,8,15Zm4,0h0a3,3,0,0,1,3-3h0a3,3,0,0,1,3,3h0a3,3,0,0,1-3,3h0A3,3,0,0,1,12,15Z"/><path class="cls-1" d="M8,33H8a7,7,0,0,0,7,7h0a7,7,0,0,0,7-7h0a7,7,0,0,0-7-7h0A7,7,0,0,0,8,33Zm4,0h0a3,3,0,0,1,3-3h0a3,3,0,0,1,3,3h0a3,3,0,0,1-3,3h0A3,3,0,0,1,12,33Z"/><path class="cls-1" d="M39.6,10H35.66a4,4,0,0,0-2.83,1.17L24.7,19.3a1,1,0,0,1-1.4,0l-2.6-2.6a1,1,0,0,0-1.4,0l-2.6,2.6a1,1,0,0,0,0,1.4l2.6,2.6a1,1,0,0,1,0,1.4l-2.6,2.6a1,1,0,0,0,0,1.4l2.6,2.6a1,1,0,0,0,1.4,0l2.6-2.6a1,1,0,0,1,1.4,0l8.13,8.13A4,4,0,0,0,35.66,38H39.6a1,1,0,0,0,.7-1.7L28.7,24.7a1,1,0,0,1,0-1.4L40.3,11.7A1,1,0,0,0,39.6,10Z"/></svg>